<svg width="160" height="160" viewBox="0 0 160 160" fill="none" xmlns="http://www.w3.org/2000/svg">
<g clip-path="url(#clip0_4970_71890)">
<path d="M137.704 138.132C138.03 138.587 138.311 139.07 138.545 139.58C143.538 150.455 125.207 169.545 97.6021 182.22C69.9971 194.894 43.571 196.353 38.578 185.478C38.344 184.969 38.161 184.441 38.028 183.897L37.8825 183.963L29.5373 165.788L129.504 119.889L137.849 138.065L137.704 138.132Z" fill="#FD9528"/>
<ellipse cx="78.8366" cy="141.325" rx="21.6667" ry="55" transform="rotate(65.3383 78.8366 141.325)" fill="#FFD41B"/>
<path d="M131.874 69.2195C132.327 69.5494 132.745 69.9203 133.127 70.3304C141.285 79.084 129.887 102.969 107.667 123.68C85.4475 144.391 60.821 154.085 52.6617 145.333C52.2793 144.923 51.9395 144.479 51.6422 144.004L51.525 144.113L37.8883 129.483L118.354 54.481L131.99 69.111L131.874 69.2195Z" fill="#FD9528"/>
<ellipse cx="76.9702" cy="90.7615" rx="21.6667" ry="55" transform="rotate(47.0125 76.9702 90.7615)" fill="#FFD41B"/>
<path d="M106.856 -6.3287C107.391 -6.16166 107.906 -5.94664 108.4 -5.68093C118.938 -0.0124528 115.817 26.2692 101.428 53.0204C87.0384 79.7716 66.8302 96.8624 56.2919 91.1939C55.7979 90.9282 55.3338 90.6174 54.8996 90.2632L54.8238 90.4042L37.2102 80.93L89.3184 -15.9448L106.932 -6.47061L106.856 -6.3287Z" fill="#FD9528"/>
<ellipse cx="61.7988" cy="31.7012" rx="21.6667" ry="55" transform="rotate(28.2754 61.7988 31.7012)" fill="#FFD41B"/>
</g>
<defs>
<clipPath id="clip0_4970_71890">
<rect width="160" height="160" fill="white"/>
</clipPath>
</defs>
</svg>
