<svg width="64" height="64" viewBox="0 0 64 64" fill="none" xmlns="http://www.w3.org/2000/svg">
<g id="controller-button-x, dismiss, close, cancel, delete, remove" clip-path="url(#clip0_4098_19416)">
<path id="vector" fill-rule="evenodd" clip-rule="evenodd" d="M32 0C49.6731 0 64 14.3269 64 32C64 49.6731 49.6731 64 32 64C14.3269 64 0 49.6731 0 32C0 14.3269 14.3269 0 32 0ZM45.2969 18.7031C44.3596 17.7659 42.8404 17.7659 41.9031 18.7031L32 28.6063L22.0969 18.7031C21.1596 17.7659 19.6404 17.7659 18.7031 18.7031C17.7659 19.6404 17.7659 21.1596 18.7031 22.0969L28.6063 32L18.7031 41.9031C17.7659 42.8404 17.7659 44.3596 18.7031 45.2969C19.6404 46.2341 21.1596 46.2341 22.0969 45.2969L32 35.3937L41.9031 45.2969C42.8404 46.2341 44.3596 46.2341 45.2969 45.2969C46.2341 44.3596 46.2341 42.8404 45.2969 41.9031L35.3937 32L45.2969 22.0969C46.2341 21.1596 46.2341 19.6404 45.2969 18.7031Z" fill="#F9363C"/>
</g>
<defs>
<clipPath id="clip0_4098_19416">
<rect width="64" height="64" fill="white"/>
</clipPath>
</defs>
</svg>
