<svg width="24" height="24" viewBox="0 0 24 24" fill="none" xmlns="http://www.w3.org/2000/svg">
<g id="Earn">
<g id="Earn &#194;&#183; Empty">
<g id="Body">
<g id="Content">
<g id="Middle">
<g id="Placeholder">
<g id="Frame 2147237942">
<g id="Button">
<g id="plus-large, add large">
<path id="vector" fill-rule="evenodd" clip-rule="evenodd" d="M12 3C12.5523 3 13 3.44772 13 4V11H20C20.5523 11 21 11.4477 21 12C21 12.5523 20.5523 13 20 13H13V20C13 20.5523 12.5523 21 12 21C11.4477 21 11 20.5523 11 20V13H4C3.44772 13 3 12.5523 3 12C3 11.4477 3.44772 11 4 11H11V4C11 3.44772 11.4477 3 12 3Z" fill="#B1B1B4"/>
</g>
</g>
</g>
</g>
</g>
</g>
</g>
</g>
</g>
</svg>
