<svg preserveAspectRatio="none" width="100%" height="100%" overflow="visible" style="display: block;" viewBox="0 0 99.3428 84.2076" fill="none" xmlns="http://www.w3.org/2000/svg">
<path id="Vector" d="M53.9809 3.03805C54.4139 0.972495 56.4391 -0.350886 58.5047 0.0820467C60.5702 0.515066 61.8936 2.54025 61.4607 4.60581L45.4104 81.1695C44.9773 83.2351 42.9515 84.5586 40.8859 84.1255C38.8205 83.6924 37.497 81.6672 37.9299 79.6018L53.9809 3.03805ZM0.0177538 44.414C-0.177439 40.8799 1.2565 37.9263 3.35225 35.1338C5.38254 32.4285 8.40841 29.3974 12.0617 25.7267L20.2608 17.4873C21.7495 15.9913 24.1696 15.9855 25.6656 17.4742C27.1614 18.9629 27.1673 21.3824 25.6787 22.8784L17.479 31.1184C13.6675 34.9481 11.0997 37.5435 9.46525 39.7213C7.89637 41.8118 7.59455 42.9989 7.64943 43.9925C7.70431 44.9849 8.1353 46.1308 9.9258 48.0357C11.5578 49.7719 13.9345 51.7466 17.3221 54.4806L18.8366 55.7004L18.838 55.701L27.895 62.9934C29.5389 64.3169 29.7986 66.7223 28.4751 68.3662C27.1515 70.0101 24.7461 70.2698 23.1022 68.9464L14.0447 61.6547C10.0133 58.412 6.67255 55.7343 4.35664 53.2705C1.96599 50.7271 0.213091 47.9493 0.0177538 44.414ZM91.6941 39.3507C91.6391 38.3551 91.2073 37.2089 89.4175 35.3042C87.5528 33.3197 84.717 31.0248 80.512 27.6378L71.45 20.3511C69.8052 19.0286 69.544 16.6232 70.8665 14.9784C72.189 13.3337 74.5944 13.0724 76.2392 14.3949L85.3012 21.6816L85.304 21.6835C89.3326 24.9285 92.6724 27.607 94.9874 30.0707C97.3776 32.6145 99.1297 35.392 99.3251 38.9292C99.5203 42.4645 98.0839 45.4185 95.9879 48.2096C93.9573 50.9136 90.9313 53.9421 87.2814 57.6091L79.0833 65.8545C77.5951 67.351 75.1751 67.3578 73.6786 65.8696C72.1822 64.3815 72.1755 61.9621 73.6635 60.4656L81.8629 52.2201L81.8643 52.2194C85.6737 48.3921 88.2415 45.7975 89.8768 43.6199C91.4466 41.5295 91.7488 40.343 91.6941 39.3507Z" fill="var(--fill-0, white)"/>
</svg>
