<svg preserveAspectRatio="none" width="100%" height="100%" overflow="visible" style="display: block;" viewBox="0 0 320.08 240" fill="none" xmlns="http://www.w3.org/2000/svg">
<path id="Vector" d="M0 41.1871C0 26.7703 0 19.5618 2.8057 14.0553C5.27367 9.21168 9.21168 5.27367 14.0553 2.8057C19.5618 0 26.7703 0 41.1871 0H99.2461C105.12 0 108.058 0 110.843 0.62533C113.313 1.17992 115.687 2.09582 117.89 3.34346C120.374 4.75023 122.55 6.72253 126.903 10.6671L143.229 25.4613C147.582 29.4058 149.758 31.3781 152.242 32.7849C154.444 34.0325 156.819 34.9484 159.289 35.503C162.074 36.1284 165.011 36.1284 170.886 36.1284H278.892C293.316 36.1284 300.527 36.1284 306.035 38.9358C310.88 41.4052 314.818 45.3455 317.285 50.1916C320.09 55.7008 320.087 62.9124 320.079 77.3356L320.02 198.833C320.013 213.243 320.01 220.449 317.203 225.953C314.734 230.794 310.796 234.73 305.954 237.196C300.449 240 293.244 240 278.833 240H41.1871C26.7703 240 19.5618 240 14.0553 237.194C9.21168 234.726 5.27367 230.788 2.8057 225.945C0 220.438 0 213.23 0 198.813L0 41.1871Z" fill="var(--fill-0, #E53237)"/>
</svg>
