<svg preserveAspectRatio="none" width="100%" height="100%" overflow="visible" style="display: block;" viewBox="0 0 205.845 159.862" fill="none" xmlns="http://www.w3.org/2000/svg">
<g id="Vector">
<path d="M6.50296 135.208C-6.96551 111.715 1.16103 81.7514 24.6541 68.283L132.417 6.50296C155.91 -6.96552 185.873 1.16103 199.342 24.6541C212.81 48.1472 204.684 78.1105 181.191 91.5789L73.4278 153.359C49.9347 166.827 19.9714 158.701 6.50296 135.208Z" fill="white"/>
<path d="M55.0016 85.74C65.0746 79.9652 74.0759 82.5215 80.0068 92.8667C85.9117 103.167 83.6797 112.103 73.7428 117.799L63.1253 123.886L44.6564 91.6709L55.0016 85.74ZM65.4505 116.585L70.8953 113.463C78.0644 109.353 79.4185 103.513 74.9703 95.7541C70.4701 87.9045 64.7459 86.1221 57.5769 90.232L52.132 93.3536L65.4505 116.585Z" fill="var(--fill-0, black)"/>
<path d="M103.321 101.566C96.3793 105.545 89.0325 103.246 84.6364 95.5782C80.2402 87.91 81.9683 80.4083 88.9105 76.4284C95.8073 72.4745 103.154 74.7736 107.55 82.4418C111.946 90.11 110.218 97.6116 103.321 101.566ZM89.6275 92.7168C92.645 97.9802 96.8446 99.7323 100.928 97.3911C105.012 95.05 105.577 90.5666 102.559 85.3032C99.5416 80.0398 95.3873 78.2617 91.3036 80.6028C87.22 82.944 86.61 87.4534 89.6275 92.7168Z" fill="var(--fill-0, black)"/>
<path d="M124.723 67.8338C122.481 65.0799 119.108 64.663 116.385 66.2237C112.301 68.5649 111.691 73.0743 114.709 78.3377C117.726 83.6011 121.926 85.3532 126.01 83.0121C128.868 81.3733 130.161 78.1603 128.735 74.5165L133.928 71.9013C136.428 77.9439 133.939 84.0129 128.403 87.1864C121.415 91.1924 114.088 88.8219 109.718 81.1991C105.348 73.5763 107.004 66.0553 113.992 62.0493C119.346 58.9798 125.828 59.6649 129.558 64.7002L124.723 67.8338Z" fill="var(--fill-0, black)"/>
<path d="M146.614 54.1387C144.632 51.8386 141.343 51.6745 138.847 53.1052C136.397 54.5099 135.129 56.9249 136.351 59.0575C137.645 61.2094 140.907 60.4848 143.734 59.5272C150.348 57.1825 155.07 56.5855 157.775 61.3044C160.481 66.0233 156.958 70.8158 151.831 73.7552C145.706 77.2669 139.535 76.7047 136.285 71.8763L141.049 68.7233C143.109 71.1596 146.184 71.6872 149.497 69.7883C151.675 68.5397 153.955 66.2076 152.654 63.9389C151.126 61.3786 147.904 62.8038 144.979 63.6967C139.228 65.5471 134.066 66.6378 131.438 62.055C128.759 57.3815 130.932 52.3379 136.921 48.9042C142.139 45.9128 147.875 46.6637 151.403 51.0311L146.614 54.1387Z" fill="var(--fill-0, black)"/>
</g>
</svg>
