<svg preserveAspectRatio="none" width="100%" height="100%" overflow="visible" style="display: block;" viewBox="0 0 20 20" fill="none" xmlns="http://www.w3.org/2000/svg">
<g id="Frame">
<path id="Vector" d="M4.16701 17.4996C3.70868 17.4996 3.31618 17.3365 2.98951 17.0104C2.6634 16.6838 2.50035 16.2913 2.50035 15.8329V12.6663C3.16701 12.6663 3.75035 12.4546 4.25035 12.0313C4.75035 11.6074 5.00035 11.069 5.00035 10.4163C5.00035 9.76349 4.75035 9.22516 4.25035 8.80127C3.75035 8.37793 3.16701 8.16627 2.50035 8.16627V4.9996C2.50035 4.54127 2.6634 4.14904 2.98951 3.82293C3.31618 3.49627 3.70868 3.33293 4.16701 3.33293H7.50035C7.50035 2.7496 7.70174 2.25654 8.10451 1.85377C8.50729 1.45099 9.00035 1.2496 9.58368 1.2496C10.167 1.2496 10.6601 1.45099 11.0628 1.85377C11.4656 2.25654 11.667 2.7496 11.667 3.33293H15.0003C15.4587 3.33293 15.8512 3.49627 16.1778 3.82293C16.504 4.14904 16.667 4.54127 16.667 4.9996V8.33293C17.2503 8.33293 17.7434 8.53432 18.1462 8.9371C18.549 9.33988 18.7503 9.83293 18.7503 10.4163C18.7503 10.9996 18.549 11.4927 18.1462 11.8954C17.7434 12.2982 17.2503 12.4996 16.667 12.4996V15.8329C16.667 16.2913 16.504 16.6838 16.1778 17.0104C15.8512 17.3365 15.4587 17.4996 15.0003 17.4996H11.8337C11.8337 16.8329 11.622 16.2496 11.1987 15.7496C10.7748 15.2496 10.2365 14.9996 9.58368 14.9996C8.9309 14.9996 8.39257 15.2496 7.96868 15.7496C7.54535 16.2496 7.33368 16.8329 7.33368 17.4996H4.16701Z" fill="var(--fill-0, white)"/>
</g>
</svg>
