<svg preserveAspectRatio="none" width="100%" height="100%" overflow="visible" style="display: block;" viewBox="0 0 20 20" fill="none" xmlns="http://www.w3.org/2000/svg">
<g id="Frame">
<path id="Vector" d="M9.99996 1.66602C5.39746 1.66602 1.66663 5.39685 1.66663 9.99935C1.66663 13.6827 4.05413 16.8077 7.36579 17.9077C7.78246 17.9843 7.93413 17.7268 7.93413 17.506C7.93413 17.3085 7.92746 16.7843 7.92329 16.0893C5.60496 16.5918 5.11579 14.9727 5.11579 14.9727C4.73746 14.0093 4.19079 13.7535 4.19079 13.7535C3.43413 13.2368 4.24829 13.2468 4.24829 13.2468C5.08413 13.3052 5.52413 14.1052 5.52413 14.1052C6.26746 15.3793 7.47496 15.011 7.94913 14.7977C8.02579 14.2593 8.24079 13.8927 8.47913 13.6843C6.62913 13.4735 4.68329 12.7593 4.68329 9.56518C4.68329 8.65602 5.00829 7.91185 5.54079 7.32935C5.45496 7.11852 5.16913 6.27102 5.62246 5.12352C5.62246 5.12352 6.32246 4.89935 7.91413 5.97768C8.59392 5.79213 9.2953 5.69742 9.99996 5.69602C10.7083 5.69935 11.4208 5.79102 12.0866 5.97602C13.6775 4.89768 14.3758 5.12185 14.3758 5.12185C14.8308 6.26935 14.545 7.11685 14.4591 7.32768C14.9925 7.91018 15.3158 8.65435 15.3158 9.56352C15.3158 12.7652 13.3666 13.4693 11.5108 13.676C11.81 13.9335 12.0758 14.4418 12.0758 15.2193C12.0758 16.3327 12.0658 17.2318 12.0658 17.5052C12.0658 17.7277 12.2158 17.9868 12.6391 17.9052C15.9483 16.8052 18.3333 13.681 18.3333 9.99935C18.3333 5.39685 14.6025 1.66602 9.99996 1.66602Z" fill="var(--fill-0, #3C3C43)" fill-opacity="0.6"/>
</g>
</svg>
