<svg preserveAspectRatio="none" width="100%" height="100%" overflow="visible" style="display: block;" viewBox="0 0 20 20" fill="none" xmlns="http://www.w3.org/2000/svg">
<g id="Frame" clip-path="url(#clip0_0_32)">
<path id="Vector" d="M16.9309 3.64254C15.6342 3.04741 14.2659 2.62303 12.86 2.38004C12.8472 2.37755 12.8339 2.37919 12.8221 2.38473C12.8103 2.39027 12.8005 2.39943 12.7942 2.41088C12.6192 2.72338 12.4242 3.13088 12.2875 3.45254C10.7721 3.22236 9.23051 3.22236 7.71503 3.45254C7.56294 3.09613 7.39129 2.74838 7.20087 2.41088C7.1943 2.39968 7.18449 2.39074 7.17274 2.38524C7.16099 2.37973 7.14784 2.37792 7.13503 2.38004C5.72907 2.62253 4.36064 3.04692 3.0642 3.64254C3.05322 3.64715 3.04392 3.655 3.03753 3.66504C0.444201 7.53921 -0.266632 11.3175 0.0825343 15.0484C0.0833825 15.0576 0.086111 15.0666 0.090553 15.0748C0.0949949 15.083 0.101057 15.0901 0.108368 15.0959C1.61803 16.2144 3.30679 17.0682 5.10253 17.6209C5.11519 17.6245 5.12866 17.6243 5.14117 17.6201C5.15367 17.6159 5.16461 17.6081 5.17253 17.5975C5.55859 17.0729 5.90032 16.5171 6.1942 15.9359C6.1983 15.9279 6.20066 15.9192 6.20114 15.9103C6.20161 15.9013 6.20019 15.8924 6.19696 15.884C6.19374 15.8757 6.18877 15.8681 6.18241 15.8618C6.17604 15.8555 6.16842 15.8507 6.16003 15.8475C5.62122 15.6414 5.09959 15.3928 4.60003 15.1042C4.59088 15.0989 4.58317 15.0914 4.5776 15.0824C4.57203 15.0735 4.56877 15.0632 4.56811 15.0527C4.56745 15.0421 4.56941 15.0315 4.57382 15.0219C4.57823 15.0123 4.58494 15.0039 4.59337 14.9975C4.69857 14.9188 4.80193 14.8377 4.90337 14.7542C4.91224 14.747 4.92294 14.7424 4.93427 14.741C4.9456 14.7395 4.95712 14.7412 4.96753 14.7459C8.24087 16.24 11.7842 16.24 15.0192 14.7459C15.0297 14.741 15.0414 14.7392 15.0529 14.7407C15.0644 14.7422 15.0752 14.7469 15.0842 14.7542C15.1842 14.8359 15.2892 14.9192 15.395 14.9975C15.4034 15.0038 15.41 15.0121 15.4145 15.0215C15.4189 15.031 15.421 15.0414 15.4205 15.0518C15.42 15.0622 15.4169 15.0724 15.4116 15.0813C15.4063 15.0903 15.3989 15.0979 15.39 15.1034C14.8916 15.3947 14.3695 15.6433 13.8292 15.8467C13.8208 15.8499 13.8132 15.8549 13.8068 15.8613C13.8004 15.8676 13.7955 15.8753 13.7922 15.8837C13.789 15.8921 13.7876 15.9011 13.7881 15.9101C13.7886 15.9191 13.7909 15.9279 13.795 15.9359C14.095 16.5175 14.4384 17.0709 14.8159 17.5967C14.8236 17.6074 14.8346 17.6154 14.8471 17.6196C14.8597 17.6238 14.8732 17.624 14.8859 17.62C16.6846 17.0691 18.3761 16.2151 19.8875 15.095C19.8949 15.0898 19.9011 15.0831 19.9057 15.0754C19.9103 15.0676 19.9132 15.059 19.9142 15.05C20.3309 10.7359 19.2159 6.98838 16.9567 3.66671C16.9514 3.65551 16.9422 3.64745 16.9309 3.64254ZM6.68337 12.7759C5.69753 12.7759 4.88587 11.8717 4.88587 10.76C4.88587 9.64921 5.68253 8.74421 6.68337 8.74421C7.6917 8.74421 8.4967 9.65754 8.48087 10.7609C8.48087 11.8717 7.6842 12.7759 6.68337 12.7759ZM13.3292 12.7759C12.3434 12.7759 11.5317 11.8717 11.5317 10.76C11.5317 9.64921 12.3275 8.74421 13.3292 8.74421C14.3375 8.74421 15.1425 9.65754 15.1267 10.7609C15.1267 11.8717 14.3384 12.7759 13.3292 12.7759Z" fill="var(--fill-0, #3C3C43)" fill-opacity="0.6"/>
</g>
<defs>
<clipPath id="clip0_0_32">
<rect width="20" height="20" fill="white"/>
</clipPath>
</defs>
</svg>
