<svg width="1512" height="565" viewBox="0 0 1512 565" fill="none" xmlns="http://www.w3.org/2000/svg">
<path d="M1356.08 0H1452.5V430.864C1452.5 449.695 1463.04 460.241 1481.87 460.241H1512V534.813H1457.01C1396.75 534.813 1356.08 497.15 1356.08 434.63V0Z" fill="black"/>
<path d="M930.671 257.667C946.489 174.055 1010.52 126.6 1109.19 126.6C1224.44 126.6 1284.7 186.107 1284.7 298.342V435.435C1284.7 458.033 1294.49 464.812 1309.56 464.812H1325.38V534.865L1302.78 535.619C1271.9 536.372 1208.62 537.125 1201.09 473.852C1182.26 513.774 1137.06 543.904 1067.76 543.904C987.165 543.904 923.892 500.969 923.892 430.163C923.892 353.33 981.892 326.966 1076.05 308.888L1187.53 287.044C1187.53 225.276 1161.17 195.899 1109.19 195.899C1066.26 195.899 1038.39 219.25 1029.35 262.939L930.671 257.667Z" fill="black"/>
<path d="M539.888 135.59H633.292L740.254 433.88L843.451 135.59H936.855L777.917 576.999C760.592 625.961 728.202 647.805 674.721 647.805H609.187V573.986H658.149C681.5 573.986 692.799 566.453 701.085 547.622L712.384 518.245H684.513L539.888 135.59Z" fill="black"/>
<path d="M361.325 543.901C241.556 543.901 163.217 461.795 163.217 335.246C163.217 208.698 241.556 126.592 361.325 126.592C480.341 126.592 558.681 208.698 558.681 335.246C558.681 461.795 480.341 543.901 361.325 543.901ZM263.401 335.246C263.401 417.352 298.804 465.561 361.325 465.561C423.093 465.561 459.25 417.352 459.25 335.246C459.25 253.14 423.093 204.931 361.325 204.931C298.804 204.931 263.401 253.14 263.401 335.246Z" fill="black"/>
<path d="M0 0H96.417V430.864C96.417 449.695 106.963 460.241 125.794 460.241H155.924V534.813H100.937C40.6759 534.813 0 497.15 0 434.63V0Z" fill="black"/>
<mask id="mask0_2371_28622" style="mask-type:alpha" maskUnits="userSpaceOnUse" x="163" y="126" width="396" height="418">
<path d="M361.325 543.904C241.557 543.904 163.218 461.799 163.218 335.252C163.218 208.705 241.557 126.6 361.325 126.6C480.339 126.6 558.678 208.705 558.678 335.252C558.678 461.799 480.339 543.904 361.325 543.904Z" fill="black"/>
</mask>
<g mask="url(#mask0_2371_28622)">
<path d="M303.367 490.863L254.621 377.123H400.858V263.383L465.853 377.123L482.101 263.383L579.593 523.36L303.367 490.863Z" fill="#F9363C"/>
<path d="M434.461 403.961C461.346 405.37 482.15 425.401 480.929 448.701L383.571 443.599C384.792 420.299 407.577 402.552 434.461 403.961Z" fill="white"/>
<mask id="mask1_2371_28622" style="mask-type:alpha" maskUnits="userSpaceOnUse" x="383" y="403" width="98" height="46">
<path d="M434.461 403.961C461.346 405.37 482.15 425.401 480.929 448.701L383.571 443.599C384.792 420.299 407.577 402.552 434.461 403.961Z" fill="white"/>
</mask>
<g mask="url(#mask1_2371_28622)">
<circle cx="433.149" cy="434.091" r="26.2904" transform="rotate(3.00003 433.149 434.091)" fill="black"/>
</g>
</g>
<mask id="mask2_2371_28622" style="mask-type:alpha" maskUnits="userSpaceOnUse" x="923" y="126" width="403" height="418">
<path d="M930.67 257.667C946.488 174.055 1010.52 126.6 1109.19 126.6C1224.44 126.6 1284.7 186.107 1284.7 298.342V435.435C1284.7 458.033 1294.49 464.812 1309.56 464.812H1325.38V534.865L1302.78 535.619C1271.9 536.372 1208.62 537.125 1201.09 473.852C1182.26 513.774 1137.06 543.904 1067.76 543.904C987.164 543.904 923.891 500.969 923.891 430.163C923.891 353.33 935.19 226.614 1029.35 208.536L1187.53 287.044C1187.53 225.276 1161.17 195.899 1109.19 195.899C1066.26 195.899 1038.39 219.25 1029.35 262.939L930.67 257.667Z" fill="black"/>
</mask>
<g mask="url(#mask2_2371_28622)">
<path d="M1179.65 477.457L1205.51 337.957L1062.02 367.561L1038.99 255.956L998.246 380.719L959.277 272.403L915.192 565.264L1179.65 477.457Z" fill="#F9363C"/>
<path d="M1029.36 460.798L1025.54 502.294L1183.81 455.048L1192.56 407.83L1029.36 460.798Z" fill="white"/>
<mask id="mask3_2371_28622" style="mask-type:alpha" maskUnits="userSpaceOnUse" x="1025" y="407" width="168" height="96">
<path d="M1029.35 460.8L1025.53 502.296L1183.81 455.05L1192.56 407.832L1029.35 460.8Z" fill="white"/>
</mask>
<g mask="url(#mask3_2371_28622)">
<path d="M1188.79 434.591L1186.82 444.156L1159.22 438.456L1129.33 465.231L1101.86 458.18L1062.74 486.122L1021.53 478.705L1023.26 469.092L1060.42 475.777L1099.89 447.588L1126.7 454.471L1156.37 427.895L1188.79 434.591Z" fill="black"/>
</g>
<path d="M1030.56 391.688C1004.47 398.513 988.109 422.379 994.024 444.995L1088.52 420.279C1082.61 397.664 1056.66 384.863 1030.56 391.688Z" fill="white"/>
<mask id="mask4_2371_28622" style="mask-type:alpha" maskUnits="userSpaceOnUse" x="992" y="389" width="97" height="56">
<path d="M1030.56 391.688C1004.47 398.513 988.108 422.379 994.023 444.995L1088.52 420.279C1082.61 397.664 1056.66 384.863 1030.56 391.688Z" fill="white"/>
</mask>
<g mask="url(#mask4_2371_28622)">
<ellipse cx="21.9772" cy="21.9772" rx="21.9772" ry="21.9772" transform="matrix(-0.967457 0.253036 0.253037 0.967457 1047.85 402.367)" fill="black"/>
</g>
</g>
<mask id="mask5_2371_28622" style="mask-type:alpha" maskUnits="userSpaceOnUse" x="539" y="110" width="398" height="538">
<path d="M539.887 135.588H633.291L753.873 148.648L765.843 110.848L936.854 135.588L777.916 576.997C760.591 625.959 728.201 647.803 674.72 647.803H609.186V573.984H658.148C681.499 573.984 692.798 566.452 701.084 547.62L712.383 518.243H684.512L539.887 135.588Z" fill="black"/>
</mask>
<g mask="url(#mask5_2371_28622)">
<path d="M650.762 344.859L619.243 224.183L764.868 246.53L781.892 133.303L829.591 256.461L862.794 145.717L920.968 419.419L650.762 344.859Z" fill="#F9363C"/>
<path d="M800.783 276.504C812.172 279.274 821.718 285.658 828.072 293.972C835.056 303.111 838.241 314.694 835.502 326.217L826.01 323.909C827.98 315.62 825.776 307.013 820.338 299.897C815.384 293.414 807.792 288.261 798.524 286.007C789.32 283.769 780.303 284.838 773.004 288.278C764.884 292.104 758.992 298.79 757.009 307.13L747.519 304.822C750.274 293.226 758.398 284.335 768.82 279.424C778.177 275.014 789.472 273.754 800.783 276.504Z" fill="black"/>
<path d="M665.009 320.068C668.165 324.086 673.154 327.59 679.4 329.481C685.603 331.36 691.632 331.22 696.43 329.655C701.783 327.909 705.272 324.55 706.48 320.49L715.843 323.276C713.506 331.129 707.074 336.457 699.458 338.941C692.605 341.176 684.523 341.239 676.569 338.831C668.56 336.405 661.819 331.819 657.328 326.103L665.009 320.068Z" fill="black"/>
</g>
</svg>
