<svg preserveAspectRatio="none" width="100%" height="100%" overflow="visible" style="display: block;" viewBox="0 0 20 20" fill="none" xmlns="http://www.w3.org/2000/svg">
<g id="Frame">
<path id="Vector" d="M9.99996 1.66602C5.39996 1.66602 1.66663 5.39935 1.66663 9.99935C1.66663 14.5993 5.39996 18.3327 9.99996 18.3327C14.6 18.3327 18.3333 14.5993 18.3333 9.99935C18.3333 5.39935 14.6 1.66602 9.99996 1.66602ZM13.8666 7.33268C13.7416 8.64935 13.2 11.8493 12.925 13.3243C12.8083 13.9493 12.575 14.1577 12.3583 14.1827C11.875 14.2243 11.5083 13.866 11.0416 13.5577C10.3083 13.0743 9.89163 12.7743 9.18329 12.3077C8.35829 11.766 8.89163 11.466 9.36663 10.9827C9.49163 10.8577 11.625 8.91602 11.6666 8.74102C11.6724 8.71451 11.6716 8.68699 11.6644 8.66085C11.6571 8.63471 11.6436 8.61074 11.625 8.59102C11.575 8.54935 11.5083 8.56602 11.45 8.57435C11.375 8.59102 10.2083 9.36602 7.93329 10.8993C7.59996 11.1243 7.29996 11.241 7.03329 11.2327C6.73329 11.2243 6.16663 11.066 5.74163 10.9243C5.21663 10.7577 4.80829 10.666 4.84163 10.3743C4.85829 10.2243 5.06663 10.0743 5.45829 9.91602C7.89163 8.85768 9.50829 8.15768 10.3166 7.82435C12.6333 6.85768 13.1083 6.69102 13.425 6.69102C13.4916 6.69102 13.65 6.70768 13.75 6.79102C13.8333 6.85768 13.8583 6.94935 13.8666 7.01602C13.8583 7.06602 13.875 7.21602 13.8666 7.33268Z" fill="var(--fill-0, #3C3C43)" fill-opacity="0.6"/>
</g>
</svg>
