<svg preserveAspectRatio="none" width="100%" height="100%" overflow="visible" style="display: block;" viewBox="0 0 96 96" fill="none" xmlns="http://www.w3.org/2000/svg">
<g id="Icon">
<path id="Vector" fill-rule="evenodd" clip-rule="evenodd" d="M82.819 26.5494L84.8786 21.3999C84.8786 21.3999 82.2575 18.5391 79.075 15.2968C75.8924 12.0545 69.1535 13.9617 69.1535 13.9617L61.4785 5.09033H48.0001H34.5217L26.8465 13.9617C26.8465 13.9617 20.1073 12.0545 16.9248 15.2968C13.7425 18.5391 11.1217 21.3999 11.1217 21.3999L13.1809 26.5494L10.5601 34.1783C10.5601 34.1783 18.2681 63.9222 19.1713 67.5545C20.9496 74.7063 22.1665 77.4721 27.2209 81.0954C32.2752 84.7194 41.4479 91.0132 42.9456 91.9667C44.4433 92.9201 46.3152 94.5449 48.0001 94.5449C49.6848 94.5449 51.5567 92.9201 53.0544 91.9667C54.5521 91.0132 63.7248 84.7194 68.779 81.0954C73.8335 77.4721 75.0502 74.7063 76.8284 67.5545C77.7317 63.9222 85.4401 34.1783 85.4401 34.1783L82.819 26.5494Z" fill="url(#paint0_linear_0_4)"/>
<path id="Vector_2" fill-rule="evenodd" clip-rule="evenodd" d="M47.9983 60.7593C48.5113 60.7593 51.799 61.9418 54.4372 63.3326C57.0752 64.7235 58.987 65.7071 59.5983 66.0967C60.2094 66.4866 59.8366 67.2213 59.2801 67.6223C58.7233 68.0232 51.2425 73.9246 50.5166 74.577C49.7905 75.2293 48.7237 76.3071 47.9983 76.3071C47.2728 76.3071 46.2059 75.2293 45.4799 74.577C44.7537 73.9246 37.2731 68.0232 36.7164 67.6223C36.1597 67.2213 35.7873 66.4866 36.3982 66.0967C37.0095 65.7071 38.9214 64.7235 41.5596 63.3326C44.1974 61.9418 47.4852 60.7593 47.9983 60.7593ZM48.0384 18.7251C48.2903 18.7322 49.7099 18.8024 51.7423 19.4927C53.9887 20.2556 56.4222 21.2092 57.5454 21.2092C58.6687 21.2092 66.999 19.5881 66.999 19.5881C66.999 19.5881 76.8713 31.7466 76.8713 34.3451C76.8713 36.9437 75.6291 37.6295 74.3803 38.9804C73.1323 40.3313 67.6788 46.2311 66.9785 46.9887C66.2781 47.7464 64.8202 48.8951 65.6778 50.9626C66.5353 53.0302 67.8005 55.6612 66.3937 58.3299C64.9867 60.9985 62.5764 62.7796 61.032 62.4851C59.4877 62.1905 55.8606 60.2594 54.5268 59.3773C53.1931 58.4953 48.9657 54.9433 48.9657 53.5842C48.9657 52.2252 53.3356 49.7851 54.1427 49.2307C54.9503 48.6766 58.6325 46.5308 58.708 45.6884C58.7832 44.846 58.7547 44.5991 57.6679 42.5179C56.5812 40.4365 54.6243 37.6593 54.9499 35.8114C55.2756 33.9636 58.4318 33.0028 60.6843 32.1362C62.9363 31.2698 67.2728 29.6332 67.8143 29.3787C68.3563 29.1242 68.2162 28.8817 66.575 28.7232C64.9342 28.5647 60.2775 27.9349 58.178 28.5312C56.0785 29.1274 52.4918 30.0344 52.2013 30.5155C51.9108 30.9964 51.6545 31.0127 51.9529 32.6719C52.251 34.3313 53.7872 42.2931 53.9362 43.7073C54.0855 45.1215 54.3771 46.0564 52.8805 46.4051C51.3835 46.7537 48.8641 47.3591 47.9983 47.3591C47.1326 47.3591 44.6128 46.7537 43.1162 46.4051C41.6193 46.0564 41.911 45.1215 42.0601 43.7073C42.2093 42.2931 43.7454 34.3313 44.0436 32.6719C44.3419 31.0127 44.0857 30.9964 43.7953 30.5155C43.5047 30.0344 39.9179 29.1274 37.8184 28.5312C35.719 27.9349 31.0623 28.5647 29.4213 28.7232C27.7803 28.8817 27.6404 29.1242 28.1821 29.3787C28.7239 29.6332 33.0603 31.2698 35.3123 32.1362C37.5646 33.0028 40.7209 33.9636 41.0466 35.8114C41.3724 37.6593 39.4152 40.4365 38.3287 42.5179C37.242 44.5991 37.2131 44.846 37.2886 45.6884C37.3638 46.5308 41.0463 48.6766 41.8536 49.2307C42.6611 49.7851 47.0307 52.2252 47.0307 53.5842C47.0307 54.9433 42.8035 58.4953 41.4697 59.3773C40.1359 60.2594 36.509 62.1905 34.9645 62.4851C33.4202 62.7796 31.0099 60.9985 29.603 58.3299C28.1962 55.6612 29.4612 53.0302 30.3187 50.9626C31.1761 48.8951 29.7184 47.7464 29.0179 46.9887C28.3179 46.2311 22.8643 40.3313 21.6157 38.9804C20.367 37.6295 19.1254 36.9437 19.1254 34.3451C19.1254 31.7466 28.9975 19.5881 28.9975 19.5881C28.9975 19.5881 37.3279 21.2092 38.4512 21.2092C39.5743 21.2092 42.008 20.2556 44.2543 19.4927C46.2867 18.8024 47.7063 18.7322 47.9581 18.7251H48.0384Z" fill="var(--fill-0, white)"/>
<path id="Vector_3" d="M69.1572 13.9617L61.4821 5.09033H48.0038H34.5254L26.8502 13.9617C26.8502 13.9617 20.111 12.0545 16.9286 15.2968C16.9286 15.2968 25.9141 14.4704 29.0029 19.588C29.0029 19.588 37.3334 21.2092 38.4566 21.2092C39.5797 21.2092 42.0134 20.2556 44.2598 19.4927C46.5061 18.7298 48.0038 18.7243 48.0038 18.7243C48.0038 18.7243 49.5013 18.7298 51.7478 19.4927C53.9941 20.2556 56.4276 21.2092 57.5509 21.2092C58.6742 21.2092 67.0044 19.588 67.0044 19.588C70.0932 14.4704 79.0793 15.2968 79.0793 15.2968C75.8967 12.0545 69.1572 13.9617 69.1572 13.9617Z" fill="url(#paint1_linear_0_4)"/>
</g>
<defs>
<linearGradient id="paint0_linear_0_4" x1="10.5601" y1="4540.93" x2="7498.55" y2="4540.93" gradientUnits="userSpaceOnUse">
<stop stop-color="#FF5500"/>
<stop offset="0.409877" stop-color="#FF5500"/>
<stop offset="0.581981" stop-color="#FF2000"/>
<stop offset="1" stop-color="#FF2000"/>
</linearGradient>
<linearGradient id="paint1_linear_0_4" x1="150.455" y1="822.407" x2="6231.94" y2="822.407" gradientUnits="userSpaceOnUse">
<stop stop-color="#FF452A"/>
<stop offset="1" stop-color="#FF2000"/>
</linearGradient>
</defs>
</svg>
