<svg preserveAspectRatio="none" width="100%" height="100%" overflow="visible" style="display: block;" viewBox="0 0 96.003 95.9592" fill="none" xmlns="http://www.w3.org/2000/svg">
<g id="Group">
<path id="Vector" d="M86.6626 71.4375C85.3752 72.1065 84.0477 72.6952 82.6876 73.2C78.3811 74.8031 73.8203 75.6161 69.2251 75.6C51.4876 75.6 36.0376 63.4125 36.0376 47.7375C36.0606 45.6386 36.6426 43.5836 37.7236 41.7844C38.8043 39.9848 40.3452 38.5061 42.1876 37.5C26.1376 38.175 22.0126 54.9 22.0126 64.6875C22.0126 92.4375 47.5501 95.2125 53.0626 95.2125C56.0251 95.2125 60.4876 94.35 63.1876 93.4875L63.6751 93.3375C74.0078 89.7667 82.8162 82.7831 88.6501 73.5375C88.8196 73.2566 88.8923 72.9278 88.8571 72.6015C88.8222 72.2753 88.6808 71.9696 88.4554 71.7315C88.2297 71.493 87.9323 71.3351 87.6083 71.2822C87.2847 71.229 86.9525 71.2838 86.6626 71.4375Z" fill="url(#paint0_linear_0_8)"/>
<path id="Vector_2" opacity="0.35" d="M86.6626 71.4375C85.3752 72.1065 84.0477 72.6952 82.6876 73.2C78.3811 74.8031 73.8203 75.6161 69.2251 75.6C51.4876 75.6 36.0376 63.4125 36.0376 47.7375C36.0606 45.6386 36.6426 43.5836 37.7236 41.7844C38.8043 39.9848 40.3452 38.5061 42.1876 37.5C26.1376 38.175 22.0126 54.9 22.0126 64.6875C22.0126 92.4375 47.5501 95.2125 53.0626 95.2125C56.0251 95.2125 60.4876 94.35 63.1876 93.4875L63.6751 93.3375C74.0078 89.7667 82.8162 82.7831 88.6501 73.5375C88.8196 73.2566 88.8923 72.9278 88.8571 72.6015C88.8222 72.2753 88.6808 71.9696 88.4554 71.7315C88.2297 71.493 87.9323 71.3351 87.6083 71.2822C87.2847 71.229 86.9525 71.2838 86.6626 71.4375Z" fill="url(#paint1_radial_0_8)"/>
<path id="Vector_3" d="M39.6375 90.4881C36.2996 88.4151 33.4062 85.7001 31.125 82.5006C28.52 78.9351 26.7269 74.8427 25.8714 70.5103C25.016 66.1783 25.119 61.7117 26.1731 57.4236C27.2273 53.1355 29.2071 49.1301 31.9736 45.6883C34.7401 42.2466 38.2264 39.4521 42.1875 37.5006C43.3875 36.9381 45.375 35.9631 48.0375 36.0006C49.911 36.0151 51.756 36.4627 53.4278 37.3084C55.0995 38.1542 56.5534 39.3748 57.675 40.8756C59.184 42.9047 60.0109 45.3595 60.0375 47.8881C60.0375 47.8131 69.225 18.0381 30.0375 18.0381C13.575 18.0381 0.037514 33.6381 0.037514 47.3631C-0.0279666 54.6133 1.52205 61.7867 4.57501 68.3631C9.57477 79.0093 18.3095 87.4495 29.1211 92.0811C39.9326 96.7127 52.0688 97.2133 63.225 93.4881C59.3164 94.7226 55.1865 95.0935 51.1204 94.5756C47.0543 94.0577 43.1494 92.6631 39.675 90.4881H39.6375Z" fill="url(#paint2_linear_0_8)"/>
<path id="Vector_4" opacity="0.41" d="M39.6375 90.4881C36.2996 88.4151 33.4062 85.7001 31.125 82.5006C28.52 78.9351 26.7269 74.8427 25.8714 70.5103C25.016 66.1783 25.119 61.7117 26.1731 57.4236C27.2273 53.1355 29.2071 49.1301 31.9736 45.6883C34.7401 42.2466 38.2264 39.4521 42.1875 37.5006C43.3875 36.9381 45.375 35.9631 48.0375 36.0006C49.911 36.0151 51.756 36.4627 53.4278 37.3084C55.0995 38.1542 56.5534 39.3748 57.675 40.8756C59.184 42.9047 60.0109 45.3595 60.0375 47.8881C60.0375 47.8131 69.225 18.0381 30.0375 18.0381C13.575 18.0381 0.037514 33.6381 0.037514 47.3631C-0.0279666 54.6133 1.52205 61.7867 4.57501 68.3631C9.57477 79.0093 18.3095 87.4495 29.1211 92.0811C39.9326 96.7127 52.0688 97.2133 63.225 93.4881C59.3164 94.7226 55.1865 95.0935 51.1204 94.5756C47.0543 94.0577 43.1494 92.6631 39.675 90.4881H39.6375Z" fill="url(#paint3_radial_0_8)"/>
<path id="Vector_5" d="M57.15 55.8C56.8125 56.175 55.875 56.7375 55.875 57.9C55.875 58.875 56.5125 59.85 57.675 60.6375C63.0375 64.3875 73.2 63.8625 73.2375 63.8625C77.2354 63.8599 81.159 62.7851 84.6 60.75C88.0643 58.7239 90.9386 55.827 92.9385 52.3474C94.938 48.8678 95.9936 44.9257 96 40.9125C96.1125 32.5125 93 26.925 91.7625 24.45C83.775 8.925 66.6375 2.3499e-07 48 2.3499e-07C35.3857 -0.00124709 23.2779 4.96313 14.2953 13.8194C5.31274 22.6756 0.177388 34.7119 0 47.325C0.1875 33.6375 13.8 22.575 30 22.575C31.3125 22.575 38.8125 22.6875 45.75 26.325C50.6239 28.7469 54.66 32.5741 57.3375 37.3125C59.625 41.2875 60.0375 46.35 60.0375 48.375C60.0375 50.4 59.025 53.3625 57.1125 55.8375L57.15 55.8Z" fill="url(#paint4_radial_0_8)"/>
<path id="Vector_6" d="M57.15 55.8C56.8125 56.175 55.875 56.7375 55.875 57.9C55.875 58.875 56.5125 59.85 57.675 60.6375C63.0375 64.3875 73.2 63.8625 73.2375 63.8625C77.2354 63.8599 81.159 62.7851 84.6 60.75C88.0643 58.7239 90.9386 55.827 92.9385 52.3474C94.938 48.8678 95.9936 44.9257 96 40.9125C96.1125 32.5125 93 26.925 91.7625 24.45C83.775 8.925 66.6375 2.3499e-07 48 2.3499e-07C35.3857 -0.00124709 23.2779 4.96313 14.2953 13.8194C5.31274 22.6756 0.177388 34.7119 0 47.325C0.1875 33.6375 13.8 22.575 30 22.575C31.3125 22.575 38.8125 22.6875 45.75 26.325C50.6239 28.7469 54.66 32.5741 57.3375 37.3125C59.625 41.2875 60.0375 46.35 60.0375 48.375C60.0375 50.4 59.025 53.3625 57.1125 55.8375L57.15 55.8Z" fill="url(#paint5_radial_0_8)"/>
</g>
<defs>
<linearGradient id="paint0_linear_0_8" x1="22.0126" y1="66.375" x2="88.9126" y2="66.375" gradientUnits="userSpaceOnUse">
<stop stop-color="#0C59A4"/>
<stop offset="1" stop-color="#114A8B"/>
</linearGradient>
<radialGradient id="paint1_radial_0_8" cx="0" cy="0" r="1" gradientUnits="userSpaceOnUse" gradientTransform="translate(58.9501 66.8794) scale(35.775 33.9862)">
<stop offset="0.7" stop-opacity="0"/>
<stop offset="0.9" stop-opacity="0.5"/>
<stop offset="1"/>
</radialGradient>
<linearGradient id="paint2_linear_0_8" x1="57.2625" y1="37.3506" x2="15.525" y2="82.8381" gradientUnits="userSpaceOnUse">
<stop stop-color="#1B9DE2"/>
<stop offset="0.2" stop-color="#1595DF"/>
<stop offset="0.7" stop-color="#0680D7"/>
<stop offset="1" stop-color="#0078D4"/>
</linearGradient>
<radialGradient id="paint3_radial_0_8" cx="0" cy="0" r="1" gradientUnits="userSpaceOnUse" gradientTransform="translate(26.4581 74.602) rotate(-81.3844) scale(53.7698 43.4408)">
<stop offset="0.8" stop-opacity="0"/>
<stop offset="0.9" stop-opacity="0.5"/>
<stop offset="1"/>
</radialGradient>
<radialGradient id="paint4_radial_0_8" cx="0" cy="0" r="1" gradientUnits="userSpaceOnUse" gradientTransform="translate(9.70875 17.7435) rotate(92.2906) scale(75.9607 161.781)">
<stop stop-color="#35C1F1"/>
<stop offset="0.1" stop-color="#34C1ED"/>
<stop offset="0.2" stop-color="#2FC2DF"/>
<stop offset="0.3" stop-color="#2BC3D2"/>
<stop offset="0.7" stop-color="#36C752"/>
</radialGradient>
<radialGradient id="paint5_radial_0_8" cx="0" cy="0" r="1" gradientUnits="userSpaceOnUse" gradientTransform="translate(90.0225 28.9875) rotate(73.7398) scale(36.4875 29.6717)">
<stop stop-color="#66EB6E"/>
<stop offset="1" stop-color="#66EB6E" stop-opacity="0"/>
</radialGradient>
</defs>
</svg>
