<svg preserveAspectRatio="none" width="100%" height="100%" overflow="visible" style="display: block;" viewBox="0 0 96 96" fill="none" xmlns="http://www.w3.org/2000/svg">
<g id="Frame">
<path id="Vector" d="M89.7583 31.1909C87.7999 26.4802 83.8333 21.3944 80.7186 19.787C83.2536 24.7567 84.7208 29.7419 85.2814 33.4625C85.2814 33.4698 85.2842 33.488 85.2902 33.5375C80.1949 20.8376 71.5551 15.7166 64.5 4.56632C64.1438 4.00251 63.7866 3.43719 63.4386 2.84132C63.2614 2.537 63.0959 2.22602 62.9425 1.90907C62.6493 1.34316 62.4233 0.744996 62.2688 0.126693C62.2698 0.0974213 62.2599 0.0688036 62.241 0.0464612C62.2221 0.0241188 62.1954 0.00966646 62.1664 0.00594303C62.1388 -0.00198101 62.1095 -0.00198101 62.0818 0.00594303C62.0755 0.00819303 62.0661 0.0155055 62.0593 0.0181305C62.0494 0.022068 62.0368 0.031068 62.0263 0.0368805C62.0314 0.0301305 62.0419 0.014943 62.0451 0.0113805C50.7257 6.64063 46.8857 18.9041 46.5328 25.0396C42.0127 25.3504 37.691 27.0157 34.1312 29.8186C33.7585 29.5038 33.3689 29.2096 32.964 28.9374C31.937 25.3441 31.8933 21.541 32.8376 17.9251C28.2086 20.0328 24.6083 23.3645 21.9908 26.3064H21.97C20.1836 24.0438 20.3096 16.5802 20.4115 15.0219C20.3901 14.9253 19.0789 15.7025 18.9071 15.8197C17.3309 16.9448 15.8572 18.2073 14.5035 19.5922C12.9631 21.1544 11.5556 22.8423 10.2956 24.6384C10.2956 24.6406 10.2943 24.6433 10.2936 24.6455C10.2936 24.6431 10.2949 24.6406 10.2956 24.6384C7.39808 28.7445 5.34306 33.3842 4.24933 38.2893C4.22777 38.387 4.20958 38.4883 4.18858 38.5867C4.10383 38.9834 3.79858 40.9679 3.74514 41.3992C3.74102 41.4324 3.73914 41.4643 3.7352 41.4974C3.34056 43.5492 3.09616 45.627 3.00396 47.7144C3.00396 47.7913 2.99927 47.8674 2.99927 47.9444C3.00002 72.8281 23.175 92.9998 48.0608 92.9998C70.348 92.9998 88.8533 76.8208 92.4761 55.5691C92.5525 54.9924 92.6136 54.4126 92.6809 53.8308C93.5766 46.1039 92.5815 37.9824 89.7583 31.1909ZM37.8218 66.4586C38.0325 66.5593 38.2305 66.6693 38.4469 66.7659C38.4559 66.7721 38.4683 66.779 38.4775 66.7846C38.2572 66.6793 38.0386 66.5706 37.8218 66.4586ZM85.2938 33.5486L85.2878 33.5049C85.29 33.5208 85.2928 33.5375 85.2953 33.5534L85.2938 33.5486Z" fill="url(#paint0_linear_0_17)"/>
<path id="Vector_2" d="M89.7583 31.191C87.7999 26.4803 83.8333 21.3945 80.7186 19.7871C83.2536 24.7568 84.7208 29.742 85.2814 33.4626C85.2814 33.4517 85.2834 33.4716 85.2881 33.505C85.2904 33.5209 85.2932 33.5376 85.2956 33.5535C89.5472 45.0792 87.231 56.7994 83.8933 63.9614C78.7298 75.0426 66.228 86.3995 46.6603 85.8456C25.5188 85.2469 6.89363 69.5601 3.41682 49.0142C2.78326 45.7742 3.41682 44.1291 3.73557 41.4985C3.34726 43.5265 3.19932 44.1122 3.00432 47.7154C3.00432 47.7923 2.99963 47.8684 2.99963 47.9455C3.00001 72.8282 23.175 92.9999 48.0608 92.9999C70.3479 92.9999 88.8533 76.8209 92.4761 55.5692C92.5524 54.9925 92.6136 54.4127 92.6809 53.8309C93.5766 46.104 92.5815 37.9825 89.7583 31.191Z" fill="url(#paint1_radial_0_17)"/>
<path id="Vector_3" d="M89.7583 31.191C87.7999 26.4803 83.8333 21.3945 80.7186 19.7871C83.2536 24.7568 84.7208 29.742 85.2814 33.4626C85.2814 33.4517 85.2834 33.4716 85.2881 33.505C85.2904 33.5209 85.2932 33.5376 85.2956 33.5535C89.5472 45.0792 87.231 56.7994 83.8933 63.9614C78.7298 75.0426 66.228 86.3995 46.6603 85.8456C25.5188 85.2469 6.89363 69.5601 3.41682 49.0142C2.78326 45.7742 3.41682 44.1291 3.73557 41.4985C3.34726 43.5265 3.19932 44.1122 3.00432 47.7154C3.00432 47.7923 2.99963 47.8684 2.99963 47.9455C3.00001 72.8282 23.175 92.9999 48.0608 92.9999C70.3479 92.9999 88.8533 76.8209 92.4761 55.5692C92.5524 54.9925 92.6136 54.4127 92.6809 53.8309C93.5766 46.104 92.5815 37.9825 89.7583 31.191Z" fill="url(#paint2_radial_0_17)"/>
<path id="Vector_4" d="M67.8604 36.4869C67.9587 36.5559 68.0479 36.6245 68.1403 36.6931C67.0095 34.6861 65.6012 32.8485 63.9572 31.2346C49.95 17.2291 60.2843 0.866754 62.0271 0.0357539C62.0322 0.0290039 62.0427 0.0138164 62.0459 0.0102539C50.7265 6.6395 46.8865 18.9029 46.5336 25.0385C47.0586 25.0021 47.5821 24.9581 48.1165 24.9581C56.5635 24.9581 63.9207 29.6024 67.8604 36.4869Z" fill="url(#paint3_radial_0_17)"/>
<path id="Vector_5" d="M48.1447 39.2834C48.0711 40.4043 44.1109 44.2696 42.726 44.2696C29.9124 44.2696 27.8325 52.0199 27.8325 52.0199C28.4001 58.5468 32.9439 63.9214 38.447 66.7654C38.6981 66.8952 38.9522 67.0124 39.2064 67.1283C39.6423 67.3213 40.0837 67.5017 40.53 67.6694C42.4169 68.3374 44.3933 68.7186 46.3933 68.8002C68.852 69.8536 73.2032 41.9513 56.9955 33.8487C61.1462 33.1268 65.4545 34.7961 67.8605 36.4863C63.9208 29.6024 56.5637 24.958 48.1168 24.958C47.5824 24.958 47.0591 25.0021 46.5339 25.0384C42.0138 25.3492 37.6921 27.0146 34.1323 29.8174C34.8193 30.3987 35.5948 31.1757 37.2287 32.7852C40.2853 35.7978 48.1281 38.9174 48.1447 39.2834Z" fill="url(#paint4_radial_0_17)"/>
<path id="Vector_6" d="M48.1447 39.2834C48.0711 40.4043 44.1109 44.2696 42.726 44.2696C29.9124 44.2696 27.8325 52.0199 27.8325 52.0199C28.4001 58.5468 32.9439 63.9214 38.447 66.7654C38.6981 66.8952 38.9522 67.0124 39.2064 67.1283C39.6423 67.3213 40.0837 67.5017 40.53 67.6694C42.4169 68.3374 44.3933 68.7186 46.3933 68.8002C68.852 69.8536 73.2032 41.9513 56.9955 33.8487C61.1462 33.1268 65.4545 34.7961 67.8605 36.4863C63.9208 29.6024 56.5637 24.958 48.1168 24.958C47.5824 24.958 47.0591 25.0021 46.5339 25.0384C42.0138 25.3492 37.6921 27.0146 34.1323 29.8174C34.8193 30.3987 35.5948 31.1757 37.2287 32.7852C40.2853 35.7978 48.1281 38.9174 48.1447 39.2834Z" fill="url(#paint5_radial_0_17)"/>
<path id="Vector_7" d="M32.0305 28.3188C32.3443 28.5212 32.6556 28.7275 32.9644 28.9375C31.9373 25.3443 31.8937 21.5412 32.838 17.9253C28.209 20.033 24.6087 23.3647 21.9911 26.3065C22.2077 26.3004 28.7438 26.1828 32.0305 28.3188Z" fill="url(#paint6_radial_0_17)"/>
<path id="Vector_8" d="M3.41685 49.0148C6.89366 69.5607 25.5188 85.2475 46.6603 85.8462C66.228 86.4001 78.7298 75.0425 83.8934 63.962C87.2309 56.7995 89.5472 45.0807 85.2957 33.5542L85.2942 33.5493L85.2882 33.5056C85.2835 33.4722 85.2807 33.4523 85.2814 33.4632C85.2814 33.4705 85.2842 33.4887 85.2902 33.5382C86.8885 43.9747 81.5796 54.0852 73.2807 60.9215L73.2557 60.9802C57.0848 74.147 41.6106 68.9242 38.4775 66.7863C38.2573 66.6803 38.0385 66.5714 37.8212 66.4595C28.3933 61.954 24.4986 53.3648 25.3337 45.9987C17.373 45.9987 14.6586 39.2845 14.6586 39.2845C14.6586 39.2845 21.8059 34.1885 31.2257 38.6206C39.9501 42.7255 48.1435 39.2849 48.1444 39.2845C48.1277 38.9185 40.285 35.7989 37.2276 32.7865C35.5939 31.177 34.8182 30.401 34.1312 29.8188C33.7585 29.504 33.3689 29.2098 32.964 28.9375C32.6549 28.728 32.3436 28.5217 32.0301 28.3188C28.7436 26.1828 22.2073 26.3003 21.9908 26.306H21.97C20.1837 24.0434 20.3097 16.5798 20.4115 15.0215C20.3901 14.9249 19.0789 15.7021 18.9072 15.8193C17.3309 16.9444 15.8573 18.2068 14.5035 19.5918C12.963 21.1543 11.5555 22.8426 10.2957 24.6391C10.2957 24.6413 10.2943 24.644 10.2936 24.6462C10.2936 24.6438 10.2949 24.6413 10.2957 24.6391C7.3981 28.7452 5.34308 33.3849 4.24935 38.29C4.22779 38.3877 2.62747 45.3854 3.41685 49.0148Z" fill="url(#paint7_radial_0_17)"/>
<path id="Vector_9" d="M63.9572 31.2348C65.6012 32.8487 67.0094 34.6863 68.1403 36.6933C68.3884 36.8797 68.6201 37.0655 68.8168 37.2468C79.0322 46.6593 73.6798 59.9718 73.2806 60.9206C81.5796 54.0843 86.8884 43.9738 85.2902 33.5373C80.1949 20.8376 71.5551 15.7166 64.5 4.56632C64.1438 4.00251 63.7866 3.43719 63.4386 2.84132C63.2614 2.537 63.0959 2.22602 62.9424 1.90907C62.6493 1.34316 62.4232 0.744996 62.2688 0.126693C62.2698 0.0974213 62.2599 0.0688036 62.241 0.0464612C62.222 0.0241188 62.1954 0.00966646 62.1664 0.00594303C62.1388 -0.00198101 62.1095 -0.00198101 62.0818 0.00594303C62.0754 0.00819303 62.0661 0.0155055 62.0593 0.0181305C62.0494 0.022068 62.0368 0.031068 62.0263 0.0368805C60.2843 0.867131 49.95 17.2295 63.9572 31.2348Z" fill="url(#paint8_radial_0_17)"/>
<path id="Vector_10" d="M68.8168 37.2467C68.6201 37.0654 68.3883 36.8796 68.1403 36.6933C68.0486 36.6243 67.9586 36.5556 67.8603 36.487C65.4543 34.7969 61.146 33.1276 56.9953 33.8494C73.203 41.9521 68.8518 69.8543 46.3931 68.8009C44.3931 68.7193 42.4167 68.3381 40.5298 67.6701C40.0836 67.5023 39.6422 67.3219 39.2062 67.129C38.952 67.0131 38.6979 66.8959 38.4468 66.7662C38.4558 66.7724 38.4682 66.7793 38.4774 66.7849C41.6105 68.9224 57.0847 74.1456 73.2556 60.9788L73.2806 60.9201C73.6798 59.9725 79.0322 46.6594 68.8168 37.2467Z" fill="url(#paint9_radial_0_17)"/>
<path id="Vector_11" d="M27.8323 52.0203C27.8323 52.0203 29.9123 44.27 42.7258 44.27C44.1111 44.27 48.0713 40.4047 48.1446 39.2838C48.2179 38.163 39.9508 42.7248 31.2259 38.6199C21.8061 34.1878 14.6588 39.2838 14.6588 39.2838C14.6588 39.2838 17.3732 45.998 25.3339 45.998C24.499 53.3641 28.3937 61.9543 37.8214 66.4588C38.0322 66.5595 38.2302 66.6695 38.4465 66.7661C32.9438 63.9219 28.3999 58.5472 27.8323 52.0203Z" fill="url(#paint10_radial_0_17)"/>
<path id="Vector_12" d="M89.7583 31.1909C87.7999 26.4802 83.8333 21.3944 80.7186 19.787C83.2536 24.7567 84.7207 29.7419 85.2814 33.4625C85.2814 33.4698 85.2842 33.488 85.2902 33.5375C80.1949 20.8376 71.5551 15.7166 64.5 4.56632C64.1437 4.00251 63.7866 3.43719 63.4386 2.84132C63.2614 2.537 63.0959 2.22602 62.9424 1.90907C62.6493 1.34316 62.4232 0.744996 62.2687 0.126693C62.2698 0.0974213 62.2599 0.0688036 62.241 0.0464612C62.222 0.0241188 62.1954 0.00966646 62.1664 0.00594303C62.1387 -0.00198101 62.1094 -0.00198101 62.0818 0.00594303C62.0754 0.00819303 62.0661 0.0155055 62.0593 0.0181305C62.0494 0.022068 62.0368 0.031068 62.0263 0.0368805C62.0314 0.0301305 62.0419 0.014943 62.0451 0.0113805C50.7257 6.64063 46.8857 18.9041 46.5328 25.0396C47.0578 25.0033 47.5813 24.9592 48.1157 24.9592C56.5631 24.9592 63.9202 29.6036 67.8594 36.4874C65.4534 34.7973 61.1451 33.128 56.9944 33.8499C73.2021 41.9525 68.8509 69.8548 46.3922 68.8014C44.3922 68.7198 42.4158 68.3386 40.5289 67.6706C40.0827 67.5027 39.6413 67.3223 39.2053 67.1294C38.9511 67.0136 38.697 66.8964 38.4459 66.7666C38.4549 66.7728 38.4673 66.7798 38.4765 66.7854C38.2563 66.6794 38.0375 66.5705 37.8202 66.4586C38.031 66.5593 38.229 66.6693 38.4454 66.7659C32.9422 63.9219 28.3984 58.5472 27.8308 52.0203C27.8308 52.0203 29.9107 44.27 42.7243 44.27C44.1096 44.27 48.0697 40.4047 48.1431 39.2838C48.1264 38.9178 40.2836 35.7982 37.2262 32.7858C35.5926 31.1763 34.8169 30.4003 34.1299 29.8181C33.7572 29.5033 33.3675 29.2091 32.9627 28.9368C31.9356 25.3436 31.892 21.5405 32.8363 17.9246C28.2073 20.0323 24.6069 23.3639 21.9894 26.3058H21.9686C20.1823 24.0433 20.3083 16.5796 20.4101 15.0213C20.3887 14.9248 19.0776 15.7019 18.9058 15.8191C17.3295 16.9443 15.8559 18.2067 14.5022 19.5916C12.9622 21.154 11.5551 22.8421 10.2956 24.6384C10.2956 24.6406 10.2943 24.6433 10.2936 24.6455C10.2936 24.6431 10.2949 24.6406 10.2956 24.6384C7.39807 28.7445 5.34304 33.3842 4.24931 38.2893C4.22775 38.387 4.20956 38.4883 4.18856 38.5867C4.10381 38.9834 3.72244 40.9966 3.66919 41.4284C3.67312 41.3954 3.66506 41.4616 3.66919 41.4284C3.3214 43.5088 3.0995 45.6082 3.00469 47.7153C3.00469 47.7922 3 47.8683 3 47.9454C3 72.8281 23.175 92.9998 48.0607 92.9998C70.3479 92.9998 88.8532 76.8208 92.4761 55.5691C92.5524 54.9924 92.6136 54.4126 92.6809 53.8308C93.5766 46.1039 92.5815 37.9824 89.7583 31.1909ZM85.2881 33.5049C85.2904 33.5208 85.2932 33.5375 85.2956 33.5534L85.2941 33.5486L85.2881 33.5049Z" fill="url(#paint11_linear_0_17)"/>
</g>
<defs>
<linearGradient id="paint0_linear_0_17" x1="7855.56" y1="1441.5" x2="620.179" y2="8421.06" gradientUnits="userSpaceOnUse">
<stop offset="0.05" stop-color="#FFF44F"/>
<stop offset="0.37" stop-color="#FF980E"/>
<stop offset="0.53" stop-color="#FF3647"/>
<stop offset="0.7" stop-color="#E31587"/>
</linearGradient>
<radialGradient id="paint1_radial_0_17" cx="0" cy="0" r="1" gradientUnits="userSpaceOnUse" gradientTransform="translate(6295.25 -924.634) scale(9216.03 9371.23)">
<stop offset="0.13" stop-color="#FFBD4F"/>
<stop offset="0.28" stop-color="#FF980E"/>
<stop offset="0.47" stop-color="#FF3750"/>
<stop offset="0.78" stop-color="#EB0878"/>
<stop offset="0.86" stop-color="#E50080"/>
</radialGradient>
<radialGradient id="paint2_radial_0_17" cx="0" cy="0" r="1" gradientUnits="userSpaceOnUse" gradientTransform="translate(3618.69 2948.3) scale(9446.43 9371.23)">
<stop offset="0.3" stop-color="#960E18"/>
<stop offset="0.35" stop-color="#B11927" stop-opacity="0.74"/>
<stop offset="0.43" stop-color="#DB293D" stop-opacity="0.34"/>
<stop offset="0.5" stop-color="#F5334B" stop-opacity="0.09"/>
<stop offset="0.53" stop-color="#FF3750" stop-opacity="0"/>
</radialGradient>
<radialGradient id="paint3_radial_0_17" cx="0" cy="0" r="1" gradientUnits="userSpaceOnUse" gradientTransform="translate(1083.66 -440.185) scale(3024.95 5135.6)">
<stop offset="0.13" stop-color="#FFF44F"/>
<stop offset="0.53" stop-color="#FF980E"/>
</radialGradient>
<radialGradient id="paint4_radial_0_17" cx="0" cy="0" r="1" gradientUnits="userSpaceOnUse" gradientTransform="translate(938.871 4855.62) scale(4002.81 4387.12)">
<stop offset="0.35" stop-color="#3A8EE6"/>
<stop offset="0.67" stop-color="#9059FF"/>
<stop offset="1" stop-color="#C139E6"/>
</radialGradient>
<radialGradient id="paint5_radial_0_17" cx="0" cy="0" r="1" gradientUnits="userSpaceOnUse" gradientTransform="translate(1898.36 1472.71) scale(2125.49 2588.4)">
<stop offset="0.21" stop-color="#9059FF" stop-opacity="0"/>
<stop offset="0.97" stop-color="#6E008B" stop-opacity="0.6"/>
</radialGradient>
<radialGradient id="paint6_radial_0_17" cx="0" cy="0" r="1" gradientUnits="userSpaceOnUse" gradientTransform="translate(2326.37 -1083.3) scale(3182.24 3193.55)">
<stop offset="0.1" stop-color="#FFE226"/>
<stop offset="0.79" stop-color="#FF7139"/>
</radialGradient>
<radialGradient id="paint7_radial_0_17" cx="0" cy="0" r="1" gradientUnits="userSpaceOnUse" gradientTransform="translate(7093.13 -2889.94) scale(15192.7 12753.5)">
<stop offset="0.11" stop-color="#FFF44F"/>
<stop offset="0.46" stop-color="#FF980E"/>
<stop offset="0.72" stop-color="#FF3647"/>
<stop offset="0.9" stop-color="#E31587"/>
</radialGradient>
<radialGradient id="paint8_radial_0_17" cx="0" cy="0" r="1" gradientTransform="matrix(1051.92 4703.94 -21132.7 1043.93 1181.39 187.923)" gradientUnits="userSpaceOnUse">
<stop stop-color="#FFF44F"/>
<stop offset="0.3" stop-color="#FF980E"/>
<stop offset="0.57" stop-color="#FF3647"/>
<stop offset="0.74" stop-color="#E31587"/>
</radialGradient>
<radialGradient id="paint9_radial_0_17" cx="0" cy="0" r="1" gradientUnits="userSpaceOnUse" gradientTransform="translate(729.981 -1494.04) scale(8722.84 8569.61)">
<stop offset="0.14" stop-color="#FFF44F"/>
<stop offset="0.48" stop-color="#FF980E"/>
<stop offset="0.66" stop-color="#FF3647"/>
<stop offset="0.9" stop-color="#E31587"/>
</radialGradient>
<radialGradient id="paint10_radial_0_17" cx="0" cy="0" r="1" gradientUnits="userSpaceOnUse" gradientTransform="translate(5349.03 -1302.89) scale(10484.6 9379.69)">
<stop offset="0.09" stop-color="#FFF44F"/>
<stop offset="0.63" stop-color="#FF980E"/>
</radialGradient>
<linearGradient id="paint11_linear_0_17" x1="7203" y1="1302" x2="1417.21" y2="7623.63" gradientUnits="userSpaceOnUse">
<stop offset="0.17" stop-color="#FFF44F" stop-opacity="0.8"/>
<stop offset="0.6" stop-color="#FFF44F" stop-opacity="0"/>
</linearGradient>
</defs>
</svg>
