<svg preserveAspectRatio="none" width="100%" height="100%" overflow="visible" style="display: block;" viewBox="0 0 96 96" fill="none" xmlns="http://www.w3.org/2000/svg">
<g id="Icon">
<rect id="Rectangle 240666248" width="96" height="96" rx="48" fill="var(--fill-0, black)"/>
<path id="Subtract" d="M33.7946 59.9996C34.2855 63.2136 35.7685 65.8411 38.258 67.8877C41.0139 70.1624 44.5857 71.3029 48.9645 71.3029C52.8011 71.3029 55.9024 70.498 58.2694 68.8795C58.5997 68.6535 58.9069 68.4141 59.1912 68.1615V78.2846C56.0883 79.4294 52.6455 79.9996 48.858 79.9996C43.8775 79.9996 39.5074 79.1153 35.7239 77.3545C31.948 75.5947 29.0063 73.0897 26.9141 69.8613C25.0164 66.9416 23.9289 63.6554 23.6522 59.9996H33.7946ZM36.8198 28.7996C35.8095 30.1488 35.3067 31.8061 35.3067 33.7732C35.3067 35.8697 35.9541 37.4893 37.2391 38.6223C38.5242 39.7629 40.2525 40.6569 42.4055 41.3119C44.5672 41.9745 47.6261 42.6557 51.578 43.3727H51.667C55.7438 44.0896 59.2525 45.0183 62.1866 46.16C65.1195 47.3005 67.5397 49.0614 69.4266 51.4588L69.4092 51.4502C71.2971 53.8476 72.2444 56.9892 72.2444 60.8813C72.2444 63.1242 71.8674 65.2301 71.111 67.1996H60.1114C61.2511 65.7865 61.8227 64.0441 61.8227 61.9697C61.8227 59.8732 61.1578 58.2003 59.8467 56.9445C58.5258 55.6877 56.7889 54.759 54.6272 54.1572C52.4644 53.5554 49.3185 52.8753 45.1885 52.0965L44.7366 52.0074C40.8369 51.3535 37.4521 50.4236 34.5713 49.2211C31.6916 48.0262 29.3691 46.2306 27.6061 43.8332C25.8333 41.4434 24.9557 38.3301 24.9557 34.4988C24.9557 32.4759 25.2566 30.5761 25.8569 28.7996H36.8198ZM47.3514 15.9996C51.6671 15.9996 55.8678 16.8231 59.4036 18.4688C62.9393 20.1134 65.731 22.414 67.77 25.3773C69.5744 28.0023 70.6279 30.9391 70.9256 34.1996H60.7006C60.0998 31.5595 58.733 29.3951 56.6118 27.7141C54.1568 25.7675 51.0642 24.7942 47.3514 24.7941C43.6375 24.7941 40.6957 25.5729 38.5416 27.1295C38.2749 27.3215 38.0248 27.5237 37.7912 27.7357V17.5174C40.6878 16.5059 43.8728 15.9996 47.3514 15.9996Z" fill="var(--fill-0, white)"/>
</g>
</svg>
