<svg preserveAspectRatio="none" width="100%" height="100%" overflow="visible" style="display: block;" viewBox="0 0 96 96" fill="none" xmlns="http://www.w3.org/2000/svg">
<g id="Frame">
<path id="Vector" d="M46.7915 45.8951L7.56111 87.1339C7.56328 87.1424 7.56541 87.151 7.56758 87.1584C8.77089 91.6359 12.8993 94.9334 17.8016 94.9334C19.7595 94.9334 21.5994 94.4086 23.1773 93.4884L23.3018 93.4144L67.4603 68.1792L46.7915 45.8951Z" fill="var(--fill-0, #EA4335)"/>
<path id="Vector_2" d="M86.4806 38.8727L86.4429 38.8482L67.3791 27.9014L45.9007 46.8311L67.4541 68.1741L86.4184 57.3378C89.7428 55.5593 92.0003 52.0887 92.0003 48.0873C92.0003 44.1101 89.7738 40.658 86.4806 38.8727Z" fill="var(--fill-0, #FBBC04)"/>
<path id="Vector_3" d="M7.55961 8.86389C7.32451 9.72583 7.2 10.6296 7.2 11.5646V84.4351C7.23865 85.4807 7.32345 86.2761 7.56174 87.1337L48.1414 46.951L7.55961 8.86389Z" fill="var(--fill-0, #4285F4)"/>
<path id="Vector_4" d="M47.0813 48L67.3853 27.8948L23.2772 2.56731C21.6746 1.61626 19.8036 1.06667 17.8017 1.06667C12.8993 1.06667 8.7645 4.37067 7.5612 8.85436C7.56009 8.85756 7.56009 8.8608 7.55903 8.8651L47.0813 48Z" fill="var(--fill-0, #34A853)"/>
</g>
</svg>
