<svg preserveAspectRatio="none" width="100%" height="100%" overflow="visible" style="display: block;" viewBox="0 0 96 96" fill="none" xmlns="http://www.w3.org/2000/svg">
<g id="Icon">
<path id="Vector" d="M48 0C35.2725 0 23.055 5.06025 14.0625 14.0588C5.0625 23.0573 0 35.2748 0 48C0 60.7252 5.0625 72.9427 14.0625 81.9412C23.055 90.9397 35.2725 96 48 96C60.7275 96 72.945 90.9397 81.9375 81.9412C90.9375 72.9427 96 60.7252 96 48C96 35.2748 90.9375 23.0573 81.9375 14.0588C72.945 5.06025 60.7275 0 48 0Z" fill="url(#paint0_linear_0_4)"/>
<path id="Vector_2" d="M21.7266 47.4928C35.7216 41.3968 45.0515 37.3776 49.7165 35.4358C63.0515 29.8911 65.8189 28.9281 67.6264 28.8958C68.0239 28.8891 68.9089 28.9873 69.4864 29.4546C69.9664 29.8483 70.1015 30.3808 70.169 30.7543C70.229 31.1278 70.3115 31.9791 70.244 32.6436C69.524 40.2336 66.3965 58.6521 64.8065 67.1533C64.139 70.7505 62.8115 71.9565 61.529 72.0742C58.739 72.3307 56.6239 70.2322 53.9239 68.4628C49.7014 65.6931 47.3165 63.9696 43.214 61.2673C38.474 58.1443 41.5489 56.4276 44.2489 53.6226C44.9539 52.8883 57.2388 41.7171 57.4713 40.7038C57.5013 40.5771 57.5315 40.1046 57.2465 39.8556C56.969 39.6058 56.5563 39.6913 56.2563 39.7588C55.8288 39.8548 49.0863 44.3158 36.0063 53.1411C34.0938 54.4566 32.3613 55.0978 30.8013 55.0641C29.0913 55.0273 25.7915 54.0951 23.339 53.2986C20.339 52.3213 17.9464 51.8046 18.1564 50.1448C18.2614 49.2808 19.4541 48.3966 21.7266 47.4928Z" fill="var(--fill-0, white)"/>
</g>
<defs>
<linearGradient id="paint0_linear_0_4" x1="48" y1="0" x2="48" y2="96" gradientUnits="userSpaceOnUse">
<stop stop-color="#2AABEE"/>
<stop offset="1" stop-color="#229ED9"/>
</linearGradient>
</defs>
</svg>
