<svg width="96" height="96" viewBox="0 0 96 96" fill="none" xmlns="http://www.w3.org/2000/svg">
<g clip-path="url(#clip0_2369_27894)">
<mask id="mask0_2369_27894" style="mask-type:luminance" maskUnits="userSpaceOnUse" x="0" y="0" width="96" height="96">
<path d="M0 0H96V96H0V0Z" fill="white"/>
</mask>
<g mask="url(#mask0_2369_27894)">
<path d="M47.999 71.9961C61.2531 71.9961 71.999 61.2502 71.999 47.9961C71.999 34.7405 61.2531 23.9961 47.999 23.9961C34.7449 23.9961 23.999 34.7405 23.999 47.9961C23.999 61.2502 34.7434 71.9961 47.999 71.9961Z" fill="white"/>
<path d="M27.2155 60.0017L6.43071 24.0078C2.21693 31.3038 -0.00165724 39.5807 -0.0019531 48.0061C-0.00224895 56.4316 2.21575 64.7086 6.42903 72.0049C10.6423 79.3012 16.7023 85.3596 23.9998 89.571C31.2972 93.7823 39.5748 95.9981 48.0002 95.9956L68.782 60.0032V59.9956C66.6773 63.646 63.6485 66.6778 60.0001 68.786C56.3518 70.8942 52.2126 72.0044 47.9989 72.005C43.7853 72.0057 39.6458 70.8966 35.9968 68.7895C32.3479 66.6824 29.3181 63.6515 27.2124 60.0017H27.2155Z" fill="url(#paint0_linear_2369_27894)"/>
<path d="M68.7825 59.9985L48.0008 95.9924C56.4262 95.994 64.7035 93.7772 72.0003 89.5649C79.2972 85.3527 85.3564 79.2935 89.5686 71.9967C93.7808 64.6998 95.9976 56.4225 95.9961 47.9971C95.9945 39.5717 93.7746 31.2953 89.5596 24H47.9977L47.9932 24.003C52.2065 24.0011 56.3461 25.1087 59.9956 27.2143C63.6452 29.3199 66.6759 32.3493 68.7831 35.998C70.8903 39.6466 71.9996 43.7857 71.9995 47.9991C71.9994 52.2124 70.8899 56.35 68.7825 59.9985Z" fill="url(#paint1_linear_2369_27894)"/>
<path d="M47.9984 67.0008C58.4914 67.0008 66.9988 58.4933 66.9988 48.0004C66.9988 37.5074 58.4914 29 47.9984 29C37.5055 29 28.998 37.5074 28.998 48.0004C28.998 58.4933 37.5055 67.0008 47.9984 67.0008Z" fill="#1A73E8"/>
<path d="M48.0006 24.0002H89.5625C85.3507 16.7029 79.2919 10.6431 71.9953 6.43008C64.6986 2.21707 56.4214 -0.00061765 47.9958 1.29035e-07C39.5702 0.000617908 31.2933 2.21952 23.9973 6.4336C16.7013 10.6477 10.6434 16.7084 6.43262 24.0063L27.2159 60.0002L27.222 60.0033C25.1136 56.3555 24.0029 52.2169 24.0015 48.0037C24 43.7904 25.108 39.6511 27.2139 36.0019C29.3198 32.3528 32.3495 29.3224 35.9981 27.2156C39.6468 25.1088 43.7874 23.9998 48.0006 24.0002Z" fill="url(#paint2_linear_2369_27894)"/>
</g>
</g>
<defs>
<linearGradient id="paint0_linear_2369_27894" x1="53.1949" y1="92.9983" x2="11.63" y2="21.0074" gradientUnits="userSpaceOnUse">
<stop stop-color="#1E8E3E"/>
<stop offset="1" stop-color="#34A853"/>
</linearGradient>
<linearGradient id="paint1_linear_2369_27894" x1="40.9974" y1="96.1204" x2="82.5623" y2="24.1295" gradientUnits="userSpaceOnUse">
<stop stop-color="#FCC934"/>
<stop offset="1" stop-color="#FBBC04"/>
</linearGradient>
<linearGradient id="paint2_linear_2369_27894" x1="6.43262" y1="30.001" x2="89.5625" y2="30.001" gradientUnits="userSpaceOnUse">
<stop stop-color="#D93025"/>
<stop offset="1" stop-color="#EA4335"/>
</linearGradient>
<clipPath id="clip0_2369_27894">
<rect width="96" height="96" fill="white"/>
</clipPath>
</defs>
</svg>
