<svg preserveAspectRatio="none" width="100%" height="100%" overflow="visible" style="display: block;" viewBox="0 0 56.0175 24.0001" fill="none" xmlns="http://www.w3.org/2000/svg">
<g id="Logotype">
<path id="Vector" d="M50.2403 0H53.8124V15.9627C53.8124 16.6604 54.2031 17.0511 54.9007 17.0511H56.017V19.8139H53.9798C51.7473 19.8139 50.2403 18.4185 50.2403 16.1023V0Z" fill="var(--fill-0, white)"/>
<path id="Vector_2" d="M34.4797 9.54525C35.0658 6.44759 37.4379 4.68945 41.0937 4.68945C45.3634 4.68945 47.596 6.8941 47.596 11.0522V16.1313C47.596 16.9685 47.9588 17.2196 48.5169 17.2196H49.1029V19.815L48.2657 19.8429C47.1215 19.8708 44.7774 19.8987 44.4983 17.5545C43.8006 19.0336 42.1262 20.1499 39.5588 20.1499C36.5727 20.1499 34.2286 18.5592 34.2286 15.9359C34.2286 13.0894 36.3774 12.1127 39.8658 11.4429L43.996 10.6336C43.996 8.34526 43.0192 7.25689 41.0937 7.25689C39.503 7.25689 38.4704 8.122 38.1355 9.7406L34.4797 9.54525ZM37.9402 15.8243C37.9402 16.8289 38.8053 17.6382 40.5355 17.6382C42.5448 17.6382 44.0797 16.1592 44.0797 13.2569V13.0615L41.2611 13.5638C39.3913 13.8987 37.9402 14.1499 37.9402 15.8243Z" fill="var(--fill-0, white)"/>
<path id="Vector_3" d="M20.002 5.02344H23.4625L27.4252 16.0746L31.2485 5.02344H34.7089L28.8206 21.3769C28.1787 23.1908 26.9787 24.0001 24.9973 24.0001H22.5694V21.2652H24.3834C25.2485 21.2652 25.6671 20.9862 25.9741 20.2885L26.3927 19.2001H25.3601L20.002 5.02344Z" fill="var(--fill-0, white)"/>
<path id="Vector_4" d="M13.3864 20.1499C8.94924 20.1499 6.04692 17.108 6.04692 12.4197C6.04692 7.7313 8.94924 4.68945 13.3864 4.68945C17.7957 4.68945 20.698 7.7313 20.698 12.4197C20.698 17.108 17.7957 20.1499 13.3864 20.1499ZM9.75854 12.4197C9.75854 15.4615 11.0702 17.2475 13.3864 17.2475C15.6748 17.2475 17.0143 15.4615 17.0143 12.4197C17.0143 9.37781 15.6748 7.59177 13.3864 7.59177C11.0702 7.59177 9.75854 9.37781 9.75854 12.4197Z" fill="var(--fill-0, white)"/>
<path id="Vector_5" d="M0 0H3.57208V15.9627C3.57208 16.6604 3.96278 17.0511 4.66045 17.0511H5.77672V19.8139H3.73952C1.50697 19.8139 0 18.4185 0 16.1023V0Z" fill="var(--fill-0, white)"/>
</g>
</svg>
