<svg preserveAspectRatio="none" width="100%" height="100%" overflow="visible" style="display: block;" viewBox="0 0 20 20" fill="none" xmlns="http://www.w3.org/2000/svg">
<g id="Frame">
<path id="Subtract" d="M11.25 1.66602C13.2139 1.66602 14.1964 1.66621 14.8066 2.27637C15.4165 2.88659 15.416 3.86916 15.416 5.83301V14.166C15.416 16.13 15.4166 17.1124 14.8066 17.7227C14.1964 18.3328 13.2139 18.333 11.25 18.333H8.75C6.78598 18.333 5.80357 18.3327 5.19336 17.7227C4.58317 17.1124 4.58301 16.1302 4.58301 14.166V5.83301C4.58301 3.86882 4.58317 2.88657 5.19336 2.27637C5.80356 1.66618 6.78582 1.66602 8.75 1.66602H11.25ZM10 15C9.54 15.0002 9.16717 15.373 9.16699 15.833C9.16699 16.2932 9.53989 16.6668 10 16.667C10.4603 16.667 10.834 16.2933 10.834 15.833C10.8338 15.3729 10.4602 15 10 15Z" fill="var(--fill-0, white)"/>
</g>
</svg>
