<svg preserveAspectRatio="none" width="100%" height="100%" overflow="visible" style="display: block;" viewBox="0 0 12 20" fill="none" xmlns="http://www.w3.org/2000/svg">
<g id="flash_12">
<path id="&#226;&#134;&#179; Icon Color" d="M5.59249 3.93619L2.15519 7.76371C1.19837 8.82915 0.71996 9.36188 0.675548 9.85921C0.636846 10.2926 0.788248 10.7215 1.09048 11.0345C1.43728 11.3937 2.14411 11.508 3.55776 11.7365L4.14933 11.8322C4.34953 11.8645 4.44962 11.8807 4.51674 11.9327C4.57571 11.9784 4.61765 12.0425 4.63586 12.1149C4.65658 12.1972 4.63128 12.2954 4.58067 12.4918L3.91366 15.08C3.59463 16.3179 3.43511 16.9369 3.58129 17.1772C3.70724 17.3843 3.93566 17.5068 4.17784 17.497C4.45893 17.4856 4.88602 17.01 5.7402 16.0589L9.1775 12.2313C10.1343 11.1659 10.6127 10.6332 10.6571 10.1359C10.6958 9.70246 10.5444 9.27361 10.2422 8.96057C9.8954 8.60136 9.18857 8.48708 7.77492 8.25853L7.18335 8.16288C6.98316 8.13052 6.88306 8.11433 6.81594 8.06234C6.75697 8.01666 6.71503 7.95252 6.69683 7.88019C6.6761 7.79785 6.70141 7.69967 6.75201 7.50329L7.41902 4.9151C7.73805 3.67715 7.89757 3.05818 7.75139 2.81782C7.62544 2.61073 7.39702 2.48831 7.15484 2.49811C6.87375 2.50948 6.44666 2.98505 5.59249 3.93619Z" fill="var(--fill-0, #34C759)"/>
</g>
</svg>
