<svg width="48" height="48" viewBox="0 0 48 48" fill="none" xmlns="http://www.w3.org/2000/svg">
<g clip-path="url(#clip0_1439_14972)">
<rect width="48" height="48" fill="#4E49FF"/>
<path d="M39.9344 42.711C39.9344 42.711 36.0455 41.3521 33.2915 41.1327C30.0892 40.8775 28.4303 42.4561 25.313 41.9153C23.5102 41.6025 21.1795 40.4735 21.1795 40.4735" stroke="#4AB87F" stroke-width="2.86829"/>
<path d="M56.916 51.0474L14.25 46.0278L6 25.771H28.5879V8.20264L38.627 25.771L41.1367 8.20264L56.916 51.0474ZM12.9248 42.7749L38.2939 44.978L36.4248 38.8315L10.1328 35.9185L12.9248 42.7749Z" fill="#4AB87F"/>
<path d="M31.3457 44.0991L31.9482 44.394L32.5781 44.1685L37.5127 42.4097L38.2939 44.978L21.4893 43.5181L22.2637 43.0894L25.5596 41.2622L31.3457 44.0991ZM20.707 43.0796L21.4746 43.5171L12.9248 42.7749L12.584 41.938L16.0713 40.4331L20.707 43.0796ZM36.4248 38.8325L36.5879 39.3687L32.1426 40.9526L26.2139 38.0464L25.4697 37.6821L24.7451 38.0835L21.5049 39.8784L16.958 37.2827L16.2695 36.8901L15.542 37.2036L11.3857 38.9946L10.1328 35.9185L36.4248 38.8325Z" fill="white"/>
<path d="M34.0893 28.4346C38.2419 28.6522 41.4553 31.7461 41.2667 35.3451L26.2288 34.5569C26.4174 30.958 29.9367 28.217 34.0893 28.4346Z" fill="white"/>
<mask id="mask0_1439_14972" style="mask-type:alpha" maskUnits="userSpaceOnUse" x="26" y="28" width="16" height="8">
<path d="M34.0893 28.4346C38.2419 28.6522 41.4553 31.7461 41.2667 35.3451L26.2288 34.5569C26.4174 30.958 29.9367 28.217 34.0893 28.4346Z" fill="white"/>
</mask>
<g mask="url(#mask0_1439_14972)">
<circle cx="33.8546" cy="33.0594" r="3.38817" transform="rotate(3 33.8546 33.0594)" fill="black"/>
</g>
</g>
<defs>
<clipPath id="clip0_1439_14972">
<rect width="48" height="48" fill="white"/>
</clipPath>
</defs>
</svg>
