<svg width="48" height="48" viewBox="0 0 48 48" fill="none" xmlns="http://www.w3.org/2000/svg">
<g clip-path="url(#clip0_1439_14828)">
<rect width="48" height="48" fill="#E5DFDA"/>
<circle cx="39" cy="39" r="5" fill="#DDFF88"/>
<circle cx="9" cy="39" r="5" fill="#00ACA7"/>
<circle cx="39" cy="9" r="5" fill="#00ACA7"/>
<path d="M13.5293 46.0023L6 28.434H28.5878V10.8657L38.6268 28.434L41.1366 10.8657L56.1951 51.0218L13.5293 46.0023Z" fill="#2384A8"/>
<path d="M33.7768 32.5796C37.9294 32.7972 41.1428 35.8912 40.9542 39.4901L25.9163 38.702C26.1049 35.103 29.6242 32.362 33.7768 32.5796Z" fill="white"/>
<mask id="mask0_1439_14828" style="mask-type:alpha" maskUnits="userSpaceOnUse" x="25" y="32" width="16" height="8">
<path d="M33.7768 32.5796C37.9294 32.7972 41.1428 35.8912 40.9542 39.4901L25.9163 38.702C26.1049 35.103 29.6242 32.362 33.7768 32.5796Z" fill="white"/>
</mask>
<g mask="url(#mask0_1439_14828)">
<circle cx="33.6039" cy="35.8379" r="1.2739" transform="rotate(3 33.6039 35.8379)" fill="black"/>
</g>
<path d="M48.3535 24.7007C47.2346 25.9869 45.185 27.7689 49.0751 29.1241" stroke="white" stroke-width="1.50585"/>
<path d="M45.216 33.2953C45.4798 31.611 46.2827 29.6875 49.0748 31.3188" stroke="white" stroke-width="1.50585"/>
<path d="M40.6345 29.4939C42.3225 29.2553 44.1561 28.7869 43.1756 32.788" stroke="white" stroke-width="1.50585"/>
<path d="M44.3076 23.3172C44.9946 24.8775 46.009 27.067 41.892 27.2073" stroke="white" stroke-width="1.50585"/>
<circle cx="9" cy="9" r="5" fill="#00ACA7"/>
</g>
<defs>
<clipPath id="clip0_1439_14828">
<rect width="48" height="48" fill="white"/>
</clipPath>
</defs>
</svg>
