<svg width="48" height="48" viewBox="0 0 48 48" fill="none" xmlns="http://www.w3.org/2000/svg">
<g clip-path="url(#clip0_1439_14907)">
<rect width="48" height="48" fill="#C00090"/>
<circle cx="39" cy="39" r="5" fill="#DDFF88"/>
<circle cx="9" cy="39" r="5" fill="#FF1089"/>
<circle cx="39" cy="9" r="5" fill="#FF1089"/>
<path d="M13.5293 46.0023L6 28.434H28.5878V10.8657L38.6268 28.434L41.1366 10.8657L56.1951 51.0218L13.5293 46.0023Z" fill="#3C0E37"/>
<path d="M33.7768 32.5796C37.9294 32.7972 41.1428 35.8912 40.9542 39.4901L25.9163 38.702C26.1049 35.103 29.6242 32.362 33.7768 32.5796Z" fill="white"/>
<mask id="mask0_1439_14907" style="mask-type:alpha" maskUnits="userSpaceOnUse" x="25" y="32" width="16" height="8">
<path d="M33.7768 32.5796C37.9294 32.7972 41.1428 35.8912 40.9542 39.4901L25.9163 38.702C26.1049 35.103 29.6242 32.362 33.7768 32.5796Z" fill="white"/>
</mask>
<g mask="url(#mask0_1439_14907)">
<circle cx="31.0734" cy="38.0901" r="3.38817" transform="rotate(3 31.0734 38.0901)" fill="black"/>
</g>
<circle cx="9" cy="9" r="5" fill="#FF1089"/>
</g>
<defs>
<clipPath id="clip0_1439_14907">
<rect width="48" height="48" fill="white"/>
</clipPath>
</defs>
</svg>
